<svg xmlns="http://www.w3.org/2000/svg" width="256" height="256" viewBox="0 0 256 256">
  <rect width="256" height="256" fill="none"/>
  <path d="M128,24A104,104,0,1,0,232,128,104.12,104.12,0,0,0,128,24Zm0,192a88,88,0,1,1,88-88A88.1,88.1,0,0,1,128,216Z" fill="#646cff"/>
  <path d="M128,56a72,72,0,1,0,72,72A72.08,72.08,0,0,0,128,56Zm0,128a56,56,0,1,1,56-56A56.06,56.06,0,0,1,128,184Z" fill="#fff"/>
  <path d="M128,72a56,56,0,1,0,56,56A56.06,56.06,0,0,0,128,72Zm0,104a48,48,0,1,1,48-48A48.06,48.06,0,0,1,128,176Z" fill="#646cff"/>
</svg>